{"accessors" : [{"bufferView" : 0, "byteOffset" : 0, "componentType" : 5125, "count" : 109968, "type" : "SCALAR", "max" : [109967], "min" : [0]}, {"bufferView" : 1, "byteOffset" : 0, "componentType" : 5126, "count" : 109968, "type" : "VEC3", "max" : [76.5489501953125, 78.81893920898438, 30.67401695251465], "min" : [-76.54644775390625, -29.78473472595215, -0.102447509765625], "name" : "POSITION"}, {"bufferView" : 1, "byteOffset" : 12, "componentType" : 5126, "count" : 109968, "type" : "VEC3", "max" : [0.9999991655349731, 0.9999746084213257, 1.000002384185791], "min" : [-0.9999991655349731, -0.9995542764663696, -0.9999690055847168], "name" : "NORMAL"}, {"bufferView" : 1, "byteOffset" : 24, "componentType" : 5126, "count" : 109968, "type" : "VEC2", "max" : [0.996056318283081, 0.998231053352356], "min" : [0.004265030845999718, 0.003985404968261719], "name" : "TEXCOORD_0"}, {"bufferView" : 1, "byteOffset" : 32, "componentType" : 5126, "count" : 109968, "type" : "VEC2", "max" : [0.9986951947212219, 0.9980093240737915], "min" : [0.0036647357046604156, 0.002286553382873535], "name" : "TEXCOORD_1"}, {"bufferView" : 0, "byteOffset" : 439872, "componentType" : 5123, "count" : 678, "type" : "SCALAR", "max" : [677], "min" : [0]}, {"bufferView" : 2, "byteOffset" : 0, "componentType" : 5126, "count" : 678, "type" : "VEC3", "max" : [72.1740493774414, 11.914284706115723, 20.566387176513672], "min" : [-72.17154693603516, -21.954652786254883, 6.470712184906006], "name" : "POSITION"}, {"bufferView" : 2, "byteOffset" : 12, "componentType" : 5126, "count" : 678, "type" : "VEC3", "max" : [0.8797052502632141, 0.9278827905654907, 0.9999270439147949], "min" : [-0.8797052502632141, -0.4899565875530243, -0.999566912651062], "name" : "NORMAL"}, {"bufferView" : 2, "byteOffset" : 24, "componentType" : 5126, "count" : 678, "type" : "VEC2", "max" : [0.9709564447402954, 0.44553446769714355], "min" : [0.3866841495037079, 0.018841564655303955], "name" : "TEXCOORD_0"}, {"bufferView" : 2, "byteOffset" : 32, "componentType" : 5126, "count" : 678, "type" : "VEC2", "max" : [0.979636013507843, 0.9735360741615295], "min" : [0.6266828179359436, 0.11151856184005737], "name" : "TEXCOORD_1"}, {"bufferView" : 0, "byteOffset" : 441228, "componentType" : 5123, "count" : 3312, "type" : "SCALAR", "max" : [3311], "min" : [0]}, {"bufferView" : 3, "byteOffset" : 0, "componentType" : 5126, "count" : 3312, "type" : "VEC3", "max" : [0.9488359689712524, -15.83171272277832, 27.155445098876953], "min" : [-0.9463387727737427, -16.139318466186523, 26.712364196777344], "name" : "POSITION"}, {"bufferView" : 3, "byteOffset" : 12, "componentType" : 5126, "count" : 3312, "type" : "VEC3", "max" : [0.999618411064148, 0.15482617914676666, 0.9982929229736328], "min" : [-0.999618411064148, -0.9947990775108337, -0.9991143941879272], "name" : "NORMAL"}, {"bufferView" : 3, "byteOffset" : 24, "componentType" : 5126, "count" : 3312, "type" : "VEC2", "max" : [0.542178213596344, 0.9867849946022034], "min" : [0.36766257882118225, 0.8123435974121094], "name" : "TEXCOORD_0"}, {"bufferView" : 3, "byteOffset" : 32, "componentType" : 5126, "count" : 3312, "type" : "VEC2", "max" : [0.34178462624549866, 0.6098010540008545], "min" : [0.14927297830581665, 0.5279364585876465], "name" : "TEXCOORD_1"}], "asset" : {"generator" : "Aspose.3D 24.6.0", "version" : "2.0"}, "buffers" : [{"uri" : "buffer.bin", "byteLength" : 5006188}], "bufferViews" : [{"buffer" : 0, "byteOffset" : 0, "byteLength" : 447852, "target" : 34963}, {"buffer" : 0, "byteOffset" : 447856, "byteLength" : 4398720, "byteStride" : 40, "target" : 34962}, {"buffer" : 0, "byteOffset" : 4846580, "byteLength" : 27120, "byteStride" : 40, "target" : 34962}, {"buffer" : 0, "byteOffset" : 4873704, "byteLength" : 132480, "byteStride" : 40, "target" : 34962}], "images" : [{"uri" : "C:\\Users\\PC\\Desktop\\Cgtrader\\Dragon 2.5\\textures\\Dragon_Nor_mirror2.jpg"}, {"uri" : "C:\\Users\\PC\\Desktop\\Cgtrader\\Dragon 2.5\\textures\\Dragon_Bump_Col2.jpg"}], "materials" : [{"name" : "Game_dragon.001", "pbrMetallicRoughness" : {"baseColorFactor" : [1, 1, 1, 1], "baseColorTexture" : {"index" : 1, "texCoord" : 0}, "metallicFactor" : 1, "roughnessFactor" : 1}, "normalTexture" : {"index" : 0, "texCoord" : 0, "scale" : 1}, "emissiveFactor" : [0.5828297734260559, 0.5828297734260559, 0.5828297734260559], "alphaMode" : "OPAQUE", "doubleSided" : false}, {"name" : "Game_dragon", "pbrMetallicRoughness" : {"baseColorFactor" : [1, 1, 1, 1], "baseColorTexture" : {"index" : 1, "texCoord" : 0}, "metallicFactor" : 1, "roughnessFactor" : 1}, "normalTexture" : {"index" : 0, "texCoord" : 0, "scale" : 1}, "emissiveFactor" : [0.2596246600151062, 0.08779893815517426, 0.036255449056625366], "alphaMode" : "OPAQUE", "doubleSided" : false}, {"name" : "EYES", "pbrMetallicRoughness" : {"baseColorFactor" : [1, 1, 1, 1], "baseColorTexture" : {"index" : 1, "texCoord" : 0}, "metallicFactor" : 1, "roughnessFactor" : 1}, "normalTexture" : {"index" : 0, "texCoord" : 0, "scale" : 1}, "emissiveFactor" : [0.800000011920929, 0.800000011920929, 0.800000011920929], "alphaMode" : "OPAQUE", "doubleSided" : false}], "meshes" : [{"primitives" : [{"attributes" : {"POSITION" : 1, "NORMAL" : 2, "TEXCOORD_0" : 3, "TEXCOORD_1" : 4}, "indices" : 0, "material" : 0, "mode" : 4}, {"attributes" : {"POSITION" : 6, "NORMAL" : 7, "TEXCOORD_0" : 8, "TEXCOORD_1" : 9}, "indices" : 5, "material" : 1, "mode" : 4}, {"attributes" : {"POSITION" : 11, "NORMAL" : 12, "TEXCOORD_0" : 13, "TEXCOORD_1" : 14}, "indices" : 10, "material" : 2, "mode" : 4}], "name" : "Cube.004"}], "nodes" : [{"matrix" : [1, -1.5775533856114378E-30, -2.6986934649098725E-26, 0, -2.698693464935538E-26, -1.6292067955264295E-07, -0.9999999999999867, 0, 1.5731566558793428E-30, 0.9999999999999867, -1.6292067955264295E-07, 0, 3.661175444688317E-25, -1.3433698597964394E-14, 6.661338147750939E-16, 1], "mesh" : 0, "name" : "Cube"}], "samplers" : [{"magFilter" : 9729, "minFilter" : 9729, "wrapS" : 10497, "wrapT" : 10497}, {"magFilter" : 9729, "minFilter" : 9729, "wrapS" : 10497, "wrapT" : 10497}], "scene" : 0, "scenes" : [{"nodes" : [0]}], "textures" : [{"sampler" : 0, "source" : 0, "name" : "Dragon_Nor_mirror.jpg"}, {"sampler" : 1, "source" : 1, "name" : "Dragon_Bump_Col.jpg.001"}]}